<?xml version="1.0" standalone="no"?>
<!DOCTYPE svg PUBLIC "-//W3C//DTD SVG 20010904//EN"
 "http://www.w3.org/TR/2001/REC-SVG-20010904/DTD/svg10.dtd">
<svg version="1.0" xmlns="http://www.w3.org/2000/svg"
 width="800.000000pt" height="800.000000pt" viewBox="0 0 800.000000 800.000000"
 preserveAspectRatio="xMidYMid meet">

<g transform="translate(0.000000,800.000000) scale(0.100000,-0.100000)"
fill="#000000" stroke="none">
<path d="M0 4000 l0 -4000 4000 0 4000 0 0 4000 0 4000 -4000 0 -4000 0 0
-4000z m4850 280 l0 -2630 -180 0 -180 0 0 2404 0 2404 176 226 c96 124 177
226 180 226 2 0 4 -1183 4 -2630z m-460 1895 l0 -25 -1180 0 -1180 0 0 -1985
0 -1985 425 0 425 0 0 -25 0 -25 -445 0 -445 0 0 2035 0 2035 1200 0 1200 0 0
-25z m1610 -2010 l0 -2035 -445 0 -445 0 0 25 0 25 425 0 425 0 0 1985 0 1985
-514 0 c-484 0 -514 1 -511 18 2 9 4 20 4 25 1 4 240 7 531 7 l530 0 0 -2035z
m-1820 -395 l0 -2120 -185 0 -185 0 0 1885 0 1886 183 234 c100 129 183 235
185 235 1 0 2 -954 2 -2120z m-680 -520 l0 -1600 -180 0 -180 0 0 1373 0 1372
178 227 c97 126 178 228 180 228 1 0 2 -720 2 -1600z"/>
</g>
</svg>
